<svg xmlns="http://www.w3.org/2000/svg" viewBox="0 0 64 64" fill="none">
  <defs>
    <linearGradient id="g" x1="8" y1="5" x2="54" y2="58" gradientUnits="userSpaceOnUse"><stop stop-color="#FFE6A0"/><stop offset=".48" stop-color="#DFAE45"/><stop offset="1" stop-color="#8B5717"/></linearGradient>
    <linearGradient id="v" x1="10" y1="7" x2="54" y2="59" gradientUnits="userSpaceOnUse"><stop stop-color="#4C278B"/><stop offset="1" stop-color="#16092F"/></linearGradient>
  </defs>
  <circle cx="32" cy="32" r="29" fill="url(#v)" stroke="url(#g)" stroke-width="2"/>
  <path d="M19 46V18h12.7c7.1 0 11.3 3.7 11.3 9.7 0 6.1-4.3 9.8-11.3 9.8h-6.1V46H19Zm6.6-14h5.3c3.5 0 5.4-1.5 5.4-4.3 0-2.7-1.9-4.2-5.4-4.2h-5.3V32Z" fill="url(#g)"/>
  <path d="M46 14v27.8L39.7 48l-1.8-1.8 3.5-3.4V14H46Z" fill="url(#g)"/>
  <path d="m41.4 42.4 4.6 4.6 4.6-4.6" stroke="url(#g)" stroke-width="2.3" stroke-linecap="round" stroke-linejoin="round"/>
  <circle cx="49" cy="14" r="2.2" fill="#FFE6A0"/>
</svg>
